<svg width="100" height="100" viewBox="0 0 100 100" fill="none" xmlns="http://www.w3.org/2000/svg">
<path d="M0 25.6C0 16.6392 1.19166e-07 12.1587 1.74326 8.73615C3.27667 5.72556 5.72346 3.27787 8.73295 1.7439C12.1542 0 16.6331 0 25.5906 0H74.3727C83.3302 0 87.8091 0 91.2303 1.7439C94.2398 3.27787 96.6866 5.72556 98.2201 8.73615C99.9633 12.1587 99.9633 16.6392 99.9633 25.6V74.4C99.9633 83.3608 99.9633 87.8413 98.2201 91.2638C96.6866 94.2744 94.2398 96.7221 91.2303 98.2561C87.8091 100 83.3302 100 74.3727 100H25.5906C16.6331 100 12.1542 100 8.73295 98.2561C5.72346 96.7221 3.27667 94.2744 1.74326 91.2638C1.19166e-07 87.8413 0 83.3608 0 74.4V25.6Z" fill="#F87315"/>
<path d="M69.7823 64.2012C69.7823 69.7204 67.8628 74.2127 64.0238 77.6782C60.2488 81.1437 55.5141 83.2294 49.8196 83.9354C49.1798 88.7486 48.8599 92.2462 48.8599 94.4282C47.1323 94.4282 45.0849 94.011 42.7175 93.1767L44.3491 84.1279C40.2542 83.8712 36.8951 82.6839 34.2718 80.5661C31.6485 78.3841 30.1768 76.523 29.8569 74.9828C30.5607 72.865 32.0643 70.4905 34.3677 67.8592C36.6711 65.228 38.7506 63.6236 40.6061 63.046C43.8692 65.1639 46.9084 69.8808 49.7236 77.1969C51.5791 77.1327 53.0827 76.5551 54.2344 75.4641C55.3861 74.3089 55.962 72.5762 55.962 70.2659C55.962 67.8913 54.9702 64.9392 52.9868 61.4096C51.0673 57.8157 48.9558 54.4785 46.6525 51.3981C44.3491 48.2534 42.2056 44.7558 40.2222 40.9053C38.3027 36.9905 37.3429 33.525 37.3429 30.5087C37.3429 25.6314 39.3264 21.7808 43.2933 18.957C47.2603 16.1333 52.027 14.7214 57.5935 14.7214H58.1694C58.6173 11.2559 58.9052 8.30379 59.0331 5.86511C60.7607 5.86511 62.8081 6.28226 65.1755 7.11655L63.6399 15.5878C66.2632 16.4221 68.3107 17.7698 69.7823 19.6309C71.3179 21.4278 72.0857 23.4815 72.0857 25.7918C72.0857 28.038 71.0619 30.5729 69.0145 33.3967C66.967 36.2204 64.9196 38.4666 62.8721 40.1352L59.8009 42.638C60.5687 43.6649 61.4965 44.9805 62.5842 46.5849C63.6719 48.1893 65.1435 50.9168 66.999 54.7673C68.8545 58.6179 69.7823 61.7625 69.7823 64.2012ZM62.3922 32.6266C63.288 31.7923 64.0878 30.7975 64.7916 29.6424C65.4954 28.423 65.8473 27.1716 65.8473 25.8881C65.8473 24.5404 65.0795 23.4173 63.5439 22.5188C62.0084 21.6204 60.1528 21.1711 57.9774 21.1711C55.866 21.1711 54.0745 21.6845 52.6029 22.7113C51.1952 23.674 50.4914 24.8612 50.4914 26.2731C50.4914 27.6208 50.9393 29.2252 51.8351 31.0863C52.7948 32.8833 53.7226 34.3914 54.6183 35.6107L56.0579 37.4398C56.6978 37.1189 57.6895 36.445 59.0331 35.4182C60.4408 34.3914 61.5605 33.4608 62.3922 32.6266Z" fill="white"/>
<path d="M0 50H100V74.4C100 83.3608 100 87.8413 98.2561 91.2638C96.7221 94.2744 94.2744 96.7221 91.2638 98.2561C87.8413 100 83.3608 100 74.4 100H25.6C16.6392 100 12.1587 100 8.73615 98.2561C5.72556 96.7221 3.27787 94.2744 1.7439 91.2638C1.19209e-07 87.8413 0 83.3608 0 74.4V50Z" fill="white" fill-opacity="0.2"/>
</svg>
